<svg width="16" height="16" viewBox="0 0 16 16" fill="none" xmlns="http://www.w3.org/2000/svg">
<path d="M3.29375 5.70625C3.68438 6.09656 4.3175 6.09687 4.70781 5.70628L7 3.41563V11C7 11.5522 7.44781 12 8 12C8.55219 12 9 11.5522 9 11V3.41563L11.2931 5.70875C11.6834 6.09906 12.3166 6.09906 12.7072 5.70872C13.0975 5.31841 13.0975 4.68528 12.7072 4.29466L8.70719 0.294656C8.5125 0.0976562 8.25625 0 8 0C7.74375 0 7.4875 0.0976562 7.29375 0.292969L3.29375 4.29375C2.9025 4.68437 2.9025 5.31563 3.29375 5.70625ZM15 11H10C10 12.1047 9.10469 13 8 13C6.89531 13 6 12.1047 6 11H1C0.447812 11 0 11.4478 0 12V15C0 15.5522 0.447812 16 1 16H15C15.5522 16 16 15.5522 16 15V12C16 11.4469 15.5531 11 15 11ZM13.5 14.25C13.0875 14.25 12.75 13.9125 12.75 13.5C12.75 13.0875 13.0875 12.75 13.5 12.75C13.9125 12.75 14.25 13.0875 14.25 13.5C14.25 13.9125 13.9125 14.25 13.5 14.25Z" fill="white"/>
</svg>
